<svg width="257" height="27" viewBox="0 0 257 27" fill="none" xmlns="http://www.w3.org/2000/svg">
<path d="M6.42188 12.5L15.9375 23H12.875C12.5833 23 12.2917 22.9635 12 22.8906C11.7812 22.7448 11.599 22.5625 11.4531 22.3438L3.35938 13.4844V22.0156C3.35938 22.3073 3.25 22.5625 3.03125 22.7812C2.8125 22.9271 2.55729 23 2.26562 23H0.1875V5.39062C0.1875 5.17188 0.1875 4.88021 0.1875 4.51562C0.1875 4.15104 0.260417 3.82292 0.40625 3.53125C0.479167 3.16667 0.588542 2.875 0.734375 2.65625C0.953125 2.4375 1.24479 2.32812 1.60938 2.32812H4.01562C4.01562 2.32812 3.90625 2.54688 3.6875 2.98438C3.46875 3.42188 3.35938 4.22396 3.35938 5.39062V11.625L11.2344 2.875C11.3802 2.72917 11.5625 2.61979 11.7812 2.54688C12.0729 2.40104 12.3281 2.32812 12.5469 2.32812H15.7188L6.42188 12.5ZM27.7237 5.39062H24.88V22.125C24.88 22.3438 24.8071 22.5625 24.6612 22.7812C24.5154 22.9271 24.2237 23 23.7862 23H21.7081V5.39062H15.6925V3.3125C15.6925 2.94792 15.7654 2.69271 15.9112 2.54688C16.0571 2.40104 16.3123 2.32812 16.6769 2.32812H27.7237C28.8904 2.32812 29.6925 2.21875 30.13 2C30.5675 1.70833 30.7862 1.5625 30.7862 1.5625V3.85938C30.7862 4.00521 30.7498 4.15104 30.6769 4.29688C30.6769 4.36979 30.604 4.47917 30.4581 4.625C30.2394 4.77083 29.9112 4.95312 29.4737 5.17188C29.1092 5.31771 28.5258 5.39062 27.7237 5.39062ZM38.9369 11.9531C38.9369 10.4948 39.4473 9.47396 40.4681 8.89062C41.489 8.23438 42.8744 7.90625 44.6244 7.90625C46.4473 7.90625 47.8327 8.23438 48.7806 8.89062C49.8015 9.47396 50.3119 10.4948 50.3119 11.9531C50.3119 13.4844 49.8015 14.5781 48.7806 15.2344C47.8327 15.8906 46.4473 16.1823 44.6244 16.1094C42.8744 16.1094 41.489 15.8177 40.4681 15.2344C39.4473 14.5781 38.9369 13.4844 38.9369 11.9531ZM40.7962 3.64062V1.78125C40.7962 1.63542 40.8327 1.48958 40.9056 1.34375C41.0515 1.125 41.3067 1.01562 41.6712 1.01562H45.39C46.6296 1.01562 47.4681 0.90625 47.9056 0.6875C48.3431 0.395833 48.5619 0.25 48.5619 0.25V2.21875C48.5619 2.36458 48.5254 2.51042 48.4525 2.65625C48.3796 2.72917 48.3067 2.80208 48.2337 2.875C48.015 3.02083 47.6869 3.20312 47.2494 3.42188C46.8848 3.56771 46.3015 3.64062 45.4994 3.64062H40.7962ZM47.14 11.9531C47.14 11.2969 46.9212 10.8594 46.4837 10.6406C46.1192 10.4219 45.4994 10.3125 44.6244 10.3125C43.7494 10.3125 43.0931 10.4583 42.6556 10.75C42.291 10.9688 42.1087 11.4062 42.1087 12.0625C42.1087 12.7188 42.291 13.1562 42.6556 13.375C43.0931 13.5938 43.7494 13.7031 44.6244 13.7031C45.5723 13.7031 46.2285 13.5938 46.5931 13.375C46.9577 13.1562 47.14 12.6823 47.14 11.9531ZM50.2025 7.14062H37.515V5.5C37.515 5.20833 37.5879 4.98958 37.7337 4.84375C37.9525 4.625 38.2077 4.51562 38.4994 4.51562H51.1869V6.15625C51.1869 6.44792 51.0775 6.70312 50.8587 6.92188C50.7129 7.06771 50.4942 7.14062 50.2025 7.14062ZM54.2494 2.10938C54.2494 1.81771 54.3587 1.5625 54.5775 1.34375C54.7962 1.125 55.0515 1.01562 55.3431 1.01562H57.3119V8.23438H61.3587V10.3125C61.3587 10.6042 61.2494 10.8594 61.0306 11.0781C60.8848 11.224 60.666 11.2969 60.3744 11.2969H57.3119V15.5625C57.3119 15.8542 57.2025 16.1094 56.9837 16.3281C56.8379 16.474 56.6192 16.5469 56.3275 16.5469H54.2494V2.10938ZM54.5775 21.6875C54.5775 21.25 54.5046 20.9583 54.3587 20.8125C54.2129 20.6667 53.9212 20.5938 53.4837 20.5938H42.6556C42.364 20.5938 42.1087 20.5208 41.89 20.375C41.7442 20.1562 41.6712 19.901 41.6712 19.6094V17.6406H54.3587C55.5254 17.6406 56.364 17.8958 56.8744 18.4062C57.4577 18.9167 57.7494 19.7552 57.7494 20.9219V25.4062C57.7494 25.6979 57.64 25.9167 57.4212 26.0625C57.2025 26.2812 56.9837 26.3906 56.765 26.3906H54.5775V21.6875ZM71.2856 3.20312V2.875C71.2127 2.51042 71.2127 2.21875 71.2856 2C71.4315 1.78125 71.5773 1.59896 71.7231 1.45312C71.796 1.38021 71.869 1.30729 71.9419 1.23438C72.0877 1.16146 72.27 1.125 72.4888 1.125H75.1138C75.1138 1.125 75.0044 1.27083 74.7856 1.5625C74.6398 1.78125 74.5669 2.21875 74.5669 2.875V3.09375C74.5669 3.53125 74.8585 4.07812 75.4419 4.73438C76.0252 5.39062 76.7544 6.04688 77.6294 6.70312C78.4315 7.35938 79.27 7.97917 80.145 8.5625C81.02 9.07292 81.7856 9.40104 82.4419 9.54688L81.4575 10.9688C81.2388 11.4062 80.9835 11.625 80.6919 11.625C80.4002 11.625 80.0721 11.5885 79.7075 11.5156C79.27 11.3698 78.7231 11.1146 78.0669 10.75C77.4106 10.3125 76.7544 9.83854 76.0981 9.32812C75.4419 8.81771 74.8221 8.30729 74.2388 7.79688C73.7283 7.21354 73.3273 6.66667 73.0356 6.15625C72.8169 6.59375 72.4523 7.06771 71.9419 7.57812C71.4315 8.08854 70.8846 8.59896 70.3013 9.10938C69.7179 9.54688 69.0981 9.98438 68.4419 10.4219C67.7856 10.7865 67.2023 11.0781 66.6919 11.2969C66.1085 11.5156 65.671 11.625 65.3794 11.625C65.1606 11.625 64.9419 11.4427 64.7231 11.0781L63.6294 9.54688C64.1398 9.40104 64.8325 9.10938 65.7075 8.67188C66.5825 8.16146 67.421 7.57812 68.2231 6.92188C69.0252 6.33854 69.7179 5.71875 70.3013 5.0625C70.9575 4.33333 71.2856 3.71354 71.2856 3.20312ZM62.645 12.6094H81.895C82.9888 12.6094 83.7544 12.5365 84.1919 12.3906C84.7023 12.1719 84.9575 12.0625 84.9575 12.0625V14.4688C84.9575 14.6146 84.921 14.7604 84.8481 14.9062C84.8481 14.9792 84.7752 15.0521 84.6294 15.125C84.4835 15.2708 84.1919 15.4167 83.7544 15.5625C83.3169 15.6354 82.6971 15.6719 81.895 15.6719H61.5513V13.5938C61.5513 13.3021 61.6606 13.0833 61.8794 12.9375C62.0981 12.7188 62.3533 12.6094 62.645 12.6094ZM80.8013 23.6562C80.8013 24.75 80.5825 25.5156 80.145 25.9531C79.7075 26.3906 78.9054 26.6094 77.7388 26.6094H68.9888C67.8221 26.6094 67.02 26.3906 66.5825 25.9531C66.2179 25.5156 66.0356 24.75 66.0356 23.6562V17.8594C66.0356 17.5677 66.1085 17.349 66.2544 17.2031C66.4731 16.9844 66.7283 16.875 67.02 16.875H69.0981V18.9531H77.6294V18.0781C77.6294 17.7135 77.7023 17.4583 77.8481 17.3125C78.0669 17.0938 78.395 16.9844 78.8325 16.9844H80.8013V23.6562ZM77.6294 22.5625V21.7969H69.0981V22.5625C69.0981 23 69.1346 23.2552 69.2075 23.3281C69.3533 23.474 69.645 23.5469 70.0825 23.5469H76.645C77.0825 23.5469 77.3377 23.474 77.4106 23.3281C77.5565 23.2552 77.6294 23 77.6294 22.5625ZM90.1813 7.46875H105.384V9.21875C105.384 9.51042 105.275 9.76562 105.056 9.98438C104.91 10.2031 104.692 10.3125 104.4 10.3125H89.1969V8.5625C89.1969 8.27083 89.3063 8.01562 89.525 7.79688C89.7438 7.57812 89.9625 7.46875 90.1813 7.46875ZM102.431 9.65625H99.15V6.375C99.15 6.01042 99.2229 5.71875 99.3688 5.5C99.5875 5.28125 99.8792 5.13542 100.244 5.0625H102.431V9.65625ZM95.2125 9.65625H91.9313V3.85938C91.9313 3.49479 92.0042 3.23958 92.15 3.09375C92.2958 2.875 92.5875 2.76562 93.025 2.76562H95.2125V9.65625ZM90.2906 1.45312H102.103C103.197 1.45312 103.963 1.38021 104.4 1.23438C104.91 1.01562 105.166 0.90625 105.166 0.90625V2.98438C105.166 3.13021 105.129 3.27604 105.056 3.42188C104.983 3.49479 104.91 3.56771 104.838 3.64062C104.692 3.78646 104.4 3.93229 103.963 4.07812C103.525 4.15104 102.905 4.1875 102.103 4.1875H89.1969V2.4375C89.1969 2.14583 89.3063 1.92708 89.525 1.78125C89.7438 1.5625 89.999 1.45312 90.2906 1.45312ZM86.6813 11.625H105.931C107.025 11.625 107.791 11.5521 108.228 11.4062C108.739 11.1875 108.994 11.0781 108.994 11.0781V13.2656C108.994 13.4115 108.957 13.5573 108.884 13.7031C108.884 13.776 108.811 13.849 108.666 13.9219C108.52 14.0677 108.228 14.2135 107.791 14.3594C107.353 14.4323 106.733 14.4688 105.931 14.4688H85.5875V12.6094C85.5875 12.3177 85.6969 12.099 85.9156 11.9531C86.1344 11.7344 86.3896 11.625 86.6813 11.625ZM92.8063 22.4531V23.7656H105.384V25.5156C105.384 25.8073 105.275 26.0625 105.056 26.2812C104.838 26.5 104.582 26.6094 104.291 26.6094H92.15C91.5667 26.6094 91.1292 26.5365 90.8375 26.3906C90.5458 26.3177 90.2906 26.2083 90.0719 26.0625C89.926 25.8438 89.8167 25.5521 89.7438 25.1875C89.7438 24.8229 89.7438 24.349 89.7438 23.7656V22.4531C89.7438 21.9427 89.7438 21.5417 89.7438 21.25C89.8167 20.8854 89.926 20.5938 90.0719 20.375C90.2177 20.1562 90.4365 20.0104 90.7281 19.9375C91.0927 19.7917 91.5667 19.7188 92.15 19.7188H101.884V18.4062H90.9469C90.6552 18.4062 90.4 18.3333 90.1813 18.1875C89.9625 17.9688 89.8531 17.7135 89.8531 17.4219V15.6719H103.197C103.707 15.6719 104.108 15.8177 104.4 16.1094C104.765 16.401 104.947 16.8385 104.947 17.4219V19.8281C104.947 20.4115 104.91 20.8854 104.838 21.25C104.765 21.5417 104.655 21.7969 104.509 22.0156C104.291 22.1615 103.999 22.2708 103.634 22.3438C103.343 22.4167 102.942 22.4531 102.431 22.4531H92.8063ZM114.983 11.7344H118.592C119.686 11.7344 120.488 11.6615 120.999 11.5156C121.509 11.2969 121.764 11.1875 121.764 11.1875V13.4844C121.764 13.6302 121.728 13.776 121.655 13.9219C121.582 13.9948 121.473 14.0677 121.327 14.1406C121.181 14.2865 120.889 14.4323 120.452 14.5781C120.087 14.651 119.504 14.6875 118.702 14.6875H113.561C112.395 14.6875 111.629 14.4688 111.264 14.0312C110.973 13.5208 110.827 12.7552 110.827 11.7344V9.54688C110.827 8.45312 111.009 7.72396 111.374 7.35938C111.738 6.92188 112.467 6.70312 113.561 6.70312H116.186C116.405 6.70312 116.587 6.66667 116.733 6.59375C116.952 6.44792 117.061 6.19271 117.061 5.82812V4.73438H112.03C111.738 4.73438 111.483 4.625 111.264 4.40625C111.119 4.1875 111.046 3.93229 111.046 3.64062V1.89062C111.046 1.89062 111.374 1.89062 112.03 1.89062C112.686 1.89062 113.452 1.89062 114.327 1.89062C115.202 1.89062 116.04 1.89062 116.842 1.89062C117.645 1.89062 118.119 1.89062 118.264 1.89062C118.921 1.89062 119.395 2.07292 119.686 2.4375C120.051 2.72917 120.233 3.16667 120.233 3.75V6.70312C120.233 7.86979 120.051 8.63542 119.686 9C119.395 9.36458 118.702 9.54688 117.608 9.54688H114.983C114.546 9.54688 114.254 9.61979 114.108 9.76562C114.035 9.83854 113.999 10.0938 113.999 10.5312V10.8594C113.999 11.2969 114.035 11.5521 114.108 11.625C114.254 11.6979 114.546 11.7344 114.983 11.7344ZM122.858 2.4375C122.858 2.14583 122.931 1.92708 123.077 1.78125C123.296 1.5625 123.551 1.45312 123.842 1.45312H125.921V14.0312C125.921 14.3229 125.811 14.5781 125.592 14.7969C125.374 15.0156 125.119 15.125 124.827 15.125H122.858V2.4375ZM128.436 2.10938C128.436 1.81771 128.509 1.5625 128.655 1.34375C128.874 1.125 129.129 1.01562 129.421 1.01562H131.499V16C131.499 16.2917 131.389 16.5469 131.171 16.7656C131.025 16.9844 130.806 17.0938 130.514 17.0938H128.436V2.10938ZM128.874 6.70312V9.76562H125.264V6.70312H128.874ZM121.327 17.5312C121.4 17.3125 121.473 17.1302 121.546 16.9844C121.619 16.7656 121.691 16.5833 121.764 16.4375C121.837 16.3646 121.947 16.2917 122.092 16.2188C122.238 16.1458 122.384 16.1094 122.53 16.1094H125.155C125.155 16.1094 125.082 16.2552 124.936 16.5469C124.863 16.7656 124.827 17.0938 124.827 17.5312C124.827 18.0417 125.009 18.5885 125.374 19.1719C125.738 19.7552 126.285 20.375 127.014 21.0312C127.671 21.6146 128.436 22.1615 129.311 22.6719C130.186 23.1823 131.134 23.5833 132.155 23.875L131.389 25.5156C131.244 25.9531 130.952 26.2083 130.514 26.2812C130.15 26.3542 129.785 26.3177 129.421 26.1719C129.421 26.1719 129.202 26.0625 128.764 25.8438C128.327 25.6979 127.78 25.4062 127.124 24.9688C126.54 24.6042 125.884 24.0938 125.155 23.4375C124.499 22.8542 123.879 22.1615 123.296 21.3594C122.785 22.1615 122.165 22.8542 121.436 23.4375C120.78 24.0938 120.16 24.6406 119.577 25.0781C118.921 25.5156 118.374 25.8073 117.936 25.9531C117.499 26.1719 117.28 26.2812 117.28 26.2812C116.915 26.4271 116.514 26.4271 116.077 26.2812C115.712 26.2083 115.457 25.9896 115.311 25.625L114.546 24.0938C116.733 23.3646 118.41 22.3802 119.577 21.1406C120.744 19.901 121.327 18.6979 121.327 17.5312ZM138.254 8.23438H153.457V10.0938C153.457 10.3854 153.348 10.6406 153.129 10.8594C152.983 11.0052 152.764 11.0781 152.473 11.0781H137.269V9.21875C137.269 8.92708 137.379 8.70833 137.598 8.5625C137.816 8.34375 138.035 8.23438 138.254 8.23438ZM150.504 10.4219H147.223V6.375C147.223 6.01042 147.295 5.75521 147.441 5.60938C147.66 5.39062 147.952 5.28125 148.316 5.28125H150.504V10.4219ZM143.285 10.4219H140.004V4.07812C140.004 3.71354 140.077 3.45833 140.223 3.3125C140.368 3.09375 140.66 2.94792 141.098 2.875H143.285V10.4219ZM138.363 1.5625H150.176C151.269 1.5625 152.035 1.48958 152.473 1.34375C152.983 1.125 153.238 1.01562 153.238 1.01562V3.20312C153.238 3.34896 153.202 3.49479 153.129 3.64062C153.056 3.71354 152.983 3.78646 152.91 3.85938C152.764 4.00521 152.473 4.15104 152.035 4.29688C151.598 4.36979 150.978 4.40625 150.176 4.40625H137.269V2.54688C137.269 2.25521 137.379 2.03646 137.598 1.89062C137.816 1.67188 138.071 1.5625 138.363 1.5625ZM134.754 12.6094H154.004C155.098 12.6094 155.863 12.5365 156.301 12.3906C156.811 12.1719 157.066 12.0625 157.066 12.0625V14.4688C157.066 14.5417 157.03 14.651 156.957 14.7969C156.957 14.9427 156.884 15.0156 156.738 15.0156C156.592 15.1615 156.301 15.3073 155.863 15.4531C155.426 15.526 154.806 15.5625 154.004 15.5625H133.66V13.5938C133.66 13.3021 133.769 13.0833 133.988 12.9375C134.207 12.7188 134.462 12.6094 134.754 12.6094ZM146.785 14.0312H143.613V10.3125C143.613 10.0208 143.686 9.80208 143.832 9.65625C144.051 9.4375 144.306 9.32812 144.598 9.32812H146.785V14.0312ZM140.441 26.6094C139.42 26.6094 138.691 26.3906 138.254 25.9531C137.889 25.5885 137.707 24.8958 137.707 23.875V19.9375C137.707 18.9167 137.889 18.224 138.254 17.8594C138.691 17.4219 139.42 17.2031 140.441 17.2031H152.91V23.875C152.91 24.8958 152.691 25.5885 152.254 25.9531C151.889 26.3906 151.196 26.6094 150.176 26.6094H140.441ZM140.879 22.7812C140.879 23.2188 140.915 23.474 140.988 23.5469C141.134 23.6927 141.426 23.7656 141.863 23.7656H148.754C149.191 23.7656 149.446 23.6927 149.519 23.5469C149.665 23.474 149.738 23.2188 149.738 22.7812V20.0469H141.863C141.426 20.0469 141.134 20.1198 140.988 20.2656C140.915 20.3385 140.879 20.5938 140.879 21.0312V22.7812ZM164.451 5.60938V3.64062C164.451 3.34896 164.524 3.13021 164.67 2.98438C164.889 2.76562 165.18 2.65625 165.545 2.65625H177.576V4.51562C177.576 4.88021 177.467 5.17188 177.248 5.39062C177.029 5.53646 176.774 5.60938 176.482 5.60938H172.654C172.654 6.77604 172.837 7.86979 173.201 8.89062C173.566 9.91146 174.04 10.8958 174.623 11.8438C175.206 12.7188 175.863 13.5573 176.592 14.3594C177.321 15.0885 178.05 15.7448 178.779 16.3281L177.795 17.75C177.357 18.1875 176.993 18.3698 176.701 18.2969C176.41 18.224 176.045 18.0417 175.607 17.75C175.316 17.4583 174.951 17.0938 174.514 16.6562C174.076 16.2188 173.639 15.7083 173.201 15.125C172.764 14.6146 172.363 14.0677 171.998 13.4844C171.634 12.901 171.305 12.3177 171.014 11.7344C170.795 12.3177 170.54 12.901 170.248 13.4844C169.956 14.0677 169.628 14.6146 169.264 15.125C168.826 15.6354 168.425 16.1094 168.061 16.5469C167.696 16.9844 167.331 17.349 166.967 17.6406C166.529 18.0781 166.092 18.3333 165.654 18.4062C165.29 18.4062 164.889 18.151 164.451 17.6406L163.467 16.4375C164.05 16 164.67 15.4896 165.326 14.9062C165.982 14.25 166.566 13.4479 167.076 12.5C167.66 11.625 168.134 10.6406 168.498 9.54688C168.936 8.38021 169.191 7.10417 169.264 5.71875V5.60938H164.451ZM181.186 2.10938C181.186 1.81771 181.259 1.5625 181.404 1.34375C181.623 1.125 181.878 1.01562 182.17 1.01562H184.357V22.8906C184.357 23.1823 184.248 23.401 184.029 23.5469C183.811 23.7656 183.592 23.875 183.373 23.875H181.186V2.10938ZM198.441 17.8594H191.222C190.055 17.8594 189.253 17.6406 188.816 17.2031C188.451 16.7656 188.269 16 188.269 14.9062V3.20312C188.269 2.91146 188.342 2.69271 188.488 2.54688C188.706 2.32812 188.961 2.21875 189.253 2.21875H191.441V13.9219C191.441 14.2865 191.477 14.5417 191.55 14.6875C191.696 14.8333 191.988 14.9062 192.425 14.9062H198.441C199.607 14.9062 200.409 14.8333 200.847 14.6875C201.357 14.4688 201.613 14.3594 201.613 14.3594V16.6562C201.613 16.8021 201.576 16.9479 201.503 17.0938C201.43 17.1667 201.357 17.2396 201.284 17.3125C201.066 17.4583 200.738 17.6042 200.3 17.75C199.935 17.8229 199.316 17.8594 198.441 17.8594ZM204.019 2.10938C204.019 1.81771 204.092 1.5625 204.238 1.34375C204.456 1.125 204.711 1.01562 205.003 1.01562H207.191V22.8906C207.191 23.1823 207.081 23.401 206.863 23.5469C206.644 23.7656 206.425 23.875 206.206 23.875H204.019V2.10938ZM223.789 9.98438C223.789 11.0781 223.68 12.0625 223.461 12.9375C223.315 13.8125 223.024 14.5781 222.586 15.2344C222.076 15.8177 221.383 16.2917 220.508 16.6562C219.633 17.0208 218.503 17.2031 217.117 17.2031C215.732 17.2031 214.565 17.0573 213.617 16.7656C212.742 16.401 212.086 15.8906 211.649 15.2344C211.138 14.651 210.774 13.9219 210.555 13.0469C210.409 12.099 210.336 11.0781 210.336 9.98438C210.336 8.89062 210.409 7.90625 210.555 7.03125C210.774 6.15625 211.138 5.39062 211.649 4.73438C212.159 4.07812 212.852 3.56771 213.727 3.20312C214.602 2.83854 215.732 2.65625 217.117 2.65625C218.503 2.65625 219.633 2.875 220.508 3.3125C221.383 3.67708 222.076 4.1875 222.586 4.84375C223.024 5.5 223.315 6.26562 223.461 7.14062C223.68 8.01562 223.789 8.96354 223.789 9.98438ZM213.508 9.98438C213.508 10.6406 213.545 11.2604 213.617 11.8438C213.69 12.3542 213.836 12.7917 214.055 13.1562C214.347 13.5208 214.711 13.8125 215.149 14.0312C215.586 14.25 216.242 14.3594 217.117 14.3594C217.92 14.3594 218.539 14.25 218.977 14.0312C219.487 13.8125 219.852 13.5208 220.071 13.1562C220.289 12.7188 220.435 12.2448 220.508 11.7344C220.581 11.224 220.617 10.6406 220.617 9.98438C220.617 9.40104 220.581 8.85417 220.508 8.34375C220.435 7.76042 220.289 7.25 220.071 6.8125C219.852 6.44792 219.487 6.15625 218.977 5.9375C218.539 5.64583 217.92 5.5 217.117 5.5C216.242 5.5 215.586 5.64583 215.149 5.9375C214.711 6.15625 214.347 6.44792 214.055 6.8125C213.836 7.25 213.69 7.76042 213.617 8.34375C213.545 8.85417 213.508 9.40104 213.508 9.98438ZM227.289 2.10938C227.289 1.81771 227.399 1.5625 227.617 1.34375C227.836 1.125 228.091 1.01562 228.383 1.01562H230.461V22.8906C230.461 23.1823 230.352 23.401 230.133 23.5469C229.914 23.7656 229.696 23.875 229.477 23.875H227.289V2.10938ZM227.836 8.45312V11.5156H223.242C222.951 11.5156 222.696 11.4427 222.477 11.2969C222.331 11.0781 222.258 10.8229 222.258 10.5312V8.45312H227.836ZM242.576 4.40625V3.75C242.503 3.38542 242.503 3.05729 242.576 2.76562C242.649 2.47396 242.794 2.25521 243.013 2.10938C243.086 1.96354 243.159 1.85417 243.232 1.78125C243.378 1.70833 243.524 1.67188 243.669 1.67188H246.294C246.294 1.67188 246.221 1.85417 246.076 2.21875C245.93 2.58333 245.857 3.09375 245.857 3.75V4.29688C245.93 5.17188 246.258 6.04688 246.841 6.92188C247.497 7.72396 248.227 8.48958 249.029 9.21875C249.831 9.94792 250.669 10.6042 251.544 11.1875C252.419 11.6979 253.149 12.0625 253.732 12.2812L252.747 13.7031C252.529 13.9948 252.31 14.1771 252.091 14.25C251.945 14.3229 251.763 14.3594 251.544 14.3594C251.399 14.2865 251.216 14.2135 250.997 14.1406C250.852 14.0677 250.669 13.9583 250.451 13.8125C250.232 13.6667 249.831 13.4115 249.247 13.0469C248.664 12.6094 248.081 12.1354 247.497 11.625C246.841 11.1146 246.221 10.5677 245.638 9.98438C245.055 9.40104 244.617 8.85417 244.326 8.34375C244.107 8.85417 243.706 9.40104 243.122 9.98438C242.612 10.5677 242.065 11.1146 241.482 11.625C240.826 12.2083 240.169 12.7188 239.513 13.1562C238.857 13.5938 238.346 13.8854 237.982 14.0312C237.399 14.3229 236.961 14.4688 236.669 14.4688C236.451 14.3958 236.232 14.2135 236.013 13.9219L234.919 12.2812C235.43 11.9896 236.086 11.625 236.888 11.1875C237.69 10.75 238.492 10.2396 239.294 9.65625C240.096 9 240.789 8.27083 241.372 7.46875C241.956 6.59375 242.357 5.57292 242.576 4.40625ZM233.826 17.75H253.185C254.279 17.75 255.044 17.6771 255.482 17.5312C255.992 17.3854 256.247 17.3125 256.247 17.3125V19.7188C256.247 19.7917 256.211 19.901 256.138 20.0469C256.065 20.1198 255.992 20.1927 255.919 20.2656C255.774 20.4115 255.482 20.5573 255.044 20.7031C254.607 20.776 253.987 20.8125 253.185 20.8125H232.841V18.7344C232.841 18.4427 232.951 18.224 233.169 18.0781C233.388 17.8594 233.607 17.75 233.826 17.75Z" fill="#5B292B"/>
</svg>
